<svg id="svg" version="1.1" xmlns="http://www.w3.org/2000/svg" xmlns:xlink="http://www.w3.org/1999/xlink" width="400" height="381.53846153846155" viewBox="0, 0, 400,381.53846153846155"><g id="svgg"><path id="path0" d="M210.727 38.194 C 206.588 40.415,205.725 42.346,205.725 49.381 C 205.725 55.868,205.857 55.650,201.336 56.628 C 197.066 57.552,194.590 58.535,190.655 60.868 C 187.708 62.615,183.390 66.494,181.826 68.800 C 181.222 69.691,180.634 70.506,180.520 70.611 C 180.098 71.000,177.481 76.690,177.481 77.220 C 177.481 77.522,177.223 78.386,176.908 79.140 C 175.986 81.348,176.113 90.562,177.109 93.619 C 177.949 96.200,180.057 100.651,180.821 101.459 C 181.083 101.736,181.298 102.109,181.298 102.288 C 181.298 103.081,188.779 110.045,190.458 110.815 C 190.773 110.959,191.546 111.417,192.176 111.832 C 192.805 112.247,193.578 112.700,193.893 112.838 C 194.208 112.977,195.186 113.408,196.067 113.797 C 196.948 114.186,197.901 114.504,198.185 114.504 C 198.470 114.504,198.865 114.657,199.065 114.845 C 199.406 115.167,200.138 115.368,205.367 116.582 C 206.534 116.852,208.080 117.253,208.802 117.471 C 210.733 118.056,214.071 118.980,216.031 119.472 C 216.975 119.709,218.693 120.165,219.847 120.484 C 221.002 120.804,222.891 121.287,224.046 121.559 C 225.200 121.831,226.629 122.244,227.220 122.477 C 227.810 122.710,228.636 122.901,229.053 122.901 C 229.471 122.901,230.538 123.231,231.424 123.635 C 235.668 125.568,236.235 129.693,232.644 132.508 C 230.512 134.178,209.628 133.979,203.173 132.227 C 198.564 130.975,197.721 131.405,189.381 139.254 C 183.454 144.833,182.609 146.536,184.173 149.751 C 185.543 152.568,192.670 155.883,201.581 157.848 C 205.804 158.780,205.507 158.238,205.725 165.409 L 205.916 171.687 207.098 173.153 C 210.742 177.671,223.707 178.788,229.300 175.066 C 232.170 173.156,232.612 171.924,232.824 165.235 C 233.047 158.222,232.655 158.919,237.014 157.787 C 253.392 153.533,261.988 143.375,262.013 128.244 C 262.025 120.718,261.411 118.580,257.465 112.405 C 256.684 111.182,250.624 104.962,250.214 104.962 C 249.987 104.962,247.759 103.487,247.328 103.051 C 247.003 102.723,241.431 99.996,241.088 99.998 C 240.910 99.999,240.223 99.760,239.561 99.466 C 238.411 98.955,237.698 98.750,232.729 97.499 C 226.610 95.959,223.824 95.233,218.893 93.898 C 217.214 93.443,214.981 92.897,213.931 92.685 C 212.882 92.473,211.851 92.166,211.641 92.003 C 211.431 91.840,210.544 91.598,209.669 91.465 C 203.738 90.561,201.560 85.167,205.816 81.921 L 207.133 80.916 219.392 80.916 C 230.751 80.916,231.793 80.972,233.588 81.679 C 234.850 82.177,236.424 82.443,238.108 82.443 C 241.345 82.443,241.269 82.496,250.191 74.072 C 257.994 66.704,255.974 62.291,242.881 58.102 C 240.814 57.441,238.019 56.692,236.670 56.437 C 232.943 55.734,232.825 55.521,232.822 49.523 C 232.819 42.262,231.945 40.330,227.686 38.171 C 225.529 37.077,212.775 37.094,210.727 38.194 M151.336 213.226 C 147.615 213.459,138.571 215.744,134.160 217.565 C 127.827 220.181,118.542 225.837,116.031 228.609 C 115.926 228.725,114.552 229.843,112.977 231.093 C 111.403 232.344,109.943 233.558,109.733 233.792 C 109.523 234.026,108.149 235.145,106.679 236.279 C 105.210 237.413,103.922 238.440,103.817 238.561 C 103.712 238.682,102.338 239.796,100.763 241.035 C 99.189 242.275,97.729 243.484,97.519 243.723 C 97.309 243.961,96.021 244.999,94.658 246.029 L 92.178 247.901 75.764 248.092 C 57.844 248.300,58.177 248.258,55.916 250.606 C 53.269 253.356,53.435 251.206,53.435 282.634 C 53.435 315.498,53.100 313.082,58.103 316.269 L 59.527 317.176 160.202 317.177 C 266.234 317.178,262.960 317.224,266.985 315.665 C 267.405 315.502,268.779 314.971,270.038 314.483 C 273.558 313.122,283.860 306.053,286.450 303.222 C 286.660 302.993,288.034 301.876,289.504 300.740 C 290.973 299.604,292.347 298.487,292.557 298.258 C 292.767 298.029,294.485 296.658,296.374 295.211 C 298.263 293.765,300.037 292.360,300.316 292.090 C 300.595 291.819,302.313 290.444,304.133 289.035 C 305.953 287.625,307.529 286.372,307.634 286.250 C 307.784 286.075,313.585 281.404,316.794 278.874 C 321.335 275.293,323.124 273.855,323.282 273.658 C 323.387 273.528,325.105 272.150,327.099 270.596 C 329.094 269.043,330.811 267.677,330.916 267.560 C 331.021 267.444,332.309 266.420,333.779 265.287 C 335.248 264.153,336.622 263.037,336.832 262.807 C 337.042 262.577,338.845 261.113,340.840 259.553 C 342.834 257.993,344.674 256.536,344.930 256.316 C 345.526 255.802,345.806 255.577,349.237 252.871 C 350.811 251.630,352.185 250.504,352.290 250.371 C 352.395 250.237,354.370 248.659,356.679 246.865 C 369.147 237.174,371.232 227.524,362.832 218.395 C 358.748 213.957,350.353 211.836,345.250 213.952 C 341.806 215.380,339.201 217.009,336.832 219.216 C 336.412 219.607,335.639 220.210,335.115 220.555 C 334.137 221.198,333.909 221.379,330.871 223.912 C 328.724 225.701,328.575 225.821,324.046 229.363 C 322.052 230.923,320.334 232.311,320.229 232.446 C 320.124 232.582,318.406 233.958,316.412 235.504 C 314.418 237.051,312.562 238.538,312.288 238.809 C 312.013 239.080,310.725 240.104,309.425 241.084 C 308.125 242.064,306.889 243.059,306.679 243.295 C 306.469 243.531,304.323 245.258,301.908 247.132 C 299.494 249.007,297.382 250.763,297.214 251.034 C 297.046 251.305,296.660 251.527,296.355 251.527 C 296.051 251.527,295.802 251.657,295.802 251.817 C 295.802 251.977,294.638 252.995,293.215 254.080 C 291.792 255.165,290.161 256.486,289.589 257.015 C 288.228 258.277,285.270 260.305,284.791 260.305 C 284.584 260.305,284.358 260.437,284.288 260.599 C 284.073 261.093,279.274 263.302,276.685 264.097 C 271.965 265.547,267.342 265.702,232.634 265.577 L 199.427 265.458 197.710 264.556 C 190.889 260.972,190.816 252.253,197.573 248.053 L 199.046 247.137 223.664 246.922 C 251.773 246.677,251.044 246.762,255.845 243.169 C 260.382 239.775,262.024 236.213,262.019 229.782 C 262.014 222.449,259.200 217.869,252.701 214.615 L 249.809 213.168 201.527 213.137 C 174.971 213.120,152.385 213.160,151.336 213.226 " stroke="none" fill="#050505" fill-rule="evenodd"></path><path id="path1" d="M0.000 190.840 L 0.000 381.679 200.000 381.679 L 400.000 381.679 400.000 190.840 L 400.000 0.000 200.000 0.000 L 0.000 0.000 0.000 190.840 M229.907 37.855 C 233.767 40.817,234.351 42.334,234.351 49.407 L 234.351 54.962 236.055 54.962 C 236.993 54.962,238.496 55.204,239.395 55.500 C 240.295 55.795,241.600 56.155,242.297 56.299 C 242.993 56.443,244.024 56.801,244.587 57.095 C 245.150 57.388,245.811 57.630,246.057 57.631 C 246.458 57.633,248.072 58.358,249.618 59.230 C 249.933 59.408,250.663 59.739,251.240 59.967 C 251.818 60.194,252.290 60.535,252.290 60.724 C 252.290 60.914,252.485 61.069,252.723 61.069 C 253.305 61.069,254.977 62.876,255.813 64.407 C 257.210 66.969,256.356 70.055,253.480 72.839 C 252.182 74.095,244.427 81.306,243.357 82.252 C 241.316 84.056,236.291 84.725,234.274 83.462 C 232.222 82.177,212.806 81.448,208.471 82.493 C 203.856 83.606,203.782 88.700,208.368 89.559 C 209.119 89.699,210.286 90.045,210.961 90.327 C 211.637 90.609,212.581 90.841,213.060 90.842 C 213.539 90.843,214.423 91.101,215.025 91.415 C 215.626 91.728,216.524 91.985,217.021 91.985 C 217.517 91.985,218.571 92.229,219.363 92.527 C 220.154 92.825,221.487 93.184,222.325 93.325 C 223.163 93.466,224.022 93.694,224.234 93.832 C 224.445 93.971,225.563 94.286,226.718 94.533 C 229.451 95.117,231.968 95.766,233.397 96.255 C 234.027 96.470,235.280 96.774,236.183 96.930 C 237.085 97.085,238.021 97.411,238.263 97.652 C 238.505 97.894,239.145 98.092,239.686 98.092 C 240.227 98.092,241.009 98.327,241.423 98.615 C 241.837 98.903,242.722 99.258,243.390 99.403 C 244.057 99.549,244.808 99.914,245.059 100.215 C 245.309 100.517,245.682 100.763,245.888 100.763 C 246.095 100.763,247.027 101.279,247.960 101.908 C 248.893 102.538,249.748 103.053,249.859 103.053 C 250.754 103.053,256.529 108.619,258.205 111.095 C 258.834 112.025,259.435 112.872,259.541 112.977 C 259.646 113.082,260.146 114.027,260.650 115.076 C 261.154 116.126,261.799 117.441,262.081 117.998 C 262.364 118.555,262.595 119.437,262.595 119.958 C 262.595 120.479,262.852 121.397,263.166 121.998 C 263.959 123.520,263.961 133.346,263.168 134.733 C 262.868 135.258,262.616 136.212,262.609 136.855 C 262.602 137.497,262.343 138.355,262.035 138.763 C 261.727 139.170,261.469 139.731,261.463 140.010 C 261.445 140.720,258.383 145.802,257.972 145.802 C 257.786 145.802,257.634 146.040,257.634 146.331 C 257.634 147.199,252.062 152.620,250.589 153.185 C 250.265 153.309,250.000 153.568,250.000 153.760 C 250.000 153.952,249.699 154.212,249.332 154.338 C 248.965 154.464,247.805 155.073,246.756 155.693 C 245.706 156.313,244.568 156.831,244.226 156.845 C 243.884 156.859,243.391 157.128,243.130 157.443 C 242.868 157.758,242.238 158.015,241.728 158.015 C 241.219 158.015,240.338 158.251,239.771 158.539 C 239.204 158.827,237.753 159.183,236.546 159.330 L 234.351 159.597 234.351 164.934 C 234.351 169.553,234.243 170.509,233.545 172.041 C 232.847 173.573,230.528 176.336,229.939 176.336 C 229.830 176.336,229.217 176.722,228.579 177.195 C 226.717 178.571,212.021 178.517,209.733 177.125 C 205.117 174.317,204.107 172.247,203.907 165.190 L 203.748 159.578 201.969 159.366 C 200.991 159.249,199.395 158.897,198.422 158.584 C 197.449 158.271,196.323 158.015,195.919 158.015 C 195.515 158.015,194.851 157.763,194.443 157.455 C 194.036 157.147,193.458 156.889,193.158 156.882 C 192.686 156.872,187.932 154.597,185.680 153.305 C 184.414 152.578,183.241 151.227,182.983 150.197 C 182.849 149.665,182.587 149.135,182.400 149.020 C 181.807 148.653,182.035 145.999,182.793 144.442 C 183.659 142.666,183.914 142.387,188.539 138.168 C 190.495 136.384,192.646 134.365,193.319 133.683 C 193.992 133.001,194.740 132.443,194.981 132.443 C 195.223 132.443,195.420 132.288,195.420 132.100 C 195.420 130.649,201.922 129.508,203.636 130.657 C 205.555 131.943,227.111 132.771,230.840 131.701 C 234.412 130.677,234.210 124.809,230.602 124.809 C 230.104 124.809,229.154 124.566,228.493 124.269 C 227.831 123.972,226.478 123.618,225.486 123.483 C 224.494 123.349,223.594 123.097,223.487 122.923 C 223.380 122.750,222.348 122.490,221.194 122.346 C 220.040 122.202,219.003 121.934,218.890 121.751 C 218.777 121.568,217.873 121.300,216.880 121.156 C 215.888 121.011,214.613 120.658,214.046 120.370 C 213.479 120.083,212.438 119.847,211.733 119.847 C 211.028 119.847,210.118 119.595,209.710 119.287 C 209.303 118.979,208.492 118.721,207.908 118.714 C 207.324 118.708,206.293 118.472,205.618 118.190 C 204.942 117.908,203.702 117.552,202.863 117.399 C 200.919 117.046,197.815 116.071,196.506 115.403 C 195.949 115.118,195.240 114.885,194.931 114.885 C 194.621 114.885,194.154 114.628,193.893 114.313 C 193.632 113.998,193.196 113.740,192.926 113.740 C 192.429 113.740,189.334 111.832,187.216 110.221 C 185.481 108.900,180.534 103.905,180.534 103.473 C 180.534 103.264,180.112 102.637,179.595 102.079 C 178.059 100.421,175.573 94.693,175.573 92.810 C 175.573 92.230,175.358 91.541,175.095 91.279 C 174.763 90.946,174.618 89.308,174.618 85.878 C 174.618 82.448,174.763 80.809,175.095 80.477 C 175.358 80.215,175.573 79.510,175.573 78.910 C 175.573 77.870,176.491 75.400,177.687 73.224 C 177.994 72.666,178.244 71.936,178.244 71.601 C 178.244 71.266,178.388 70.992,178.565 70.992 C 178.741 70.992,179.075 70.575,179.308 70.064 C 180.367 67.740,187.355 60.826,189.695 59.788 C 190.010 59.648,190.782 59.194,191.412 58.779 C 192.042 58.363,192.815 57.925,193.130 57.804 C 193.445 57.684,194.218 57.357,194.847 57.078 C 197.154 56.056,201.044 54.962,202.371 54.962 L 203.734 54.962 203.914 49.332 C 204.109 43.236,204.485 41.939,206.788 39.442 C 209.309 36.708,209.550 36.655,219.411 36.648 L 228.325 36.641 229.907 37.855 M249.757 212.025 C 250.359 212.339,251.248 212.595,251.734 212.595 C 252.220 212.595,252.875 212.853,253.190 213.168 C 253.505 213.483,253.915 213.740,254.102 213.740 C 256.040 213.740,262.568 221.256,262.608 223.532 C 262.614 223.920,262.872 224.570,263.180 224.978 C 263.595 225.526,263.740 226.822,263.740 229.962 C 263.740 233.102,263.595 234.398,263.180 234.946 C 262.872 235.354,262.614 236.061,262.608 236.519 C 262.601 236.976,262.360 237.585,262.073 237.872 C 261.786 238.159,261.436 238.755,261.296 239.197 C 260.974 240.213,256.391 244.934,255.248 245.428 C 254.776 245.633,254.132 245.951,253.817 246.136 C 250.230 248.243,247.488 248.443,222.020 248.460 C 208.451 248.468,200.531 248.617,199.477 248.882 C 197.589 249.358,195.180 251.402,194.821 252.832 C 194.684 253.378,194.419 253.918,194.233 254.034 C 192.954 254.824,194.408 260.000,196.437 261.881 C 199.008 264.264,196.737 264.140,235.699 264.027 C 272.205 263.921,274.498 263.830,277.158 262.383 C 277.715 262.080,278.510 261.832,278.924 261.832 C 279.339 261.832,279.891 261.574,280.153 261.260 C 280.414 260.945,280.940 260.687,281.322 260.687 C 281.704 260.687,282.113 260.530,282.231 260.338 C 282.350 260.147,283.199 259.625,284.119 259.180 C 285.039 258.735,286.197 258.014,286.693 257.578 C 287.189 257.143,288.626 255.999,289.885 255.038 C 291.145 254.077,292.599 252.880,293.116 252.379 C 293.633 251.878,295.136 250.675,296.455 249.706 C 297.775 248.737,298.855 247.806,298.855 247.636 C 298.855 247.467,299.055 247.328,299.300 247.328 C 299.545 247.328,300.017 247.079,300.350 246.773 C 302.279 245.003,302.690 244.656,302.863 244.656 C 302.968 244.656,303.366 244.356,303.749 243.989 C 304.489 243.277,306.330 241.790,308.206 240.387 C 308.836 239.916,309.488 239.310,309.656 239.040 C 309.824 238.770,310.211 238.550,310.515 238.550 C 310.820 238.550,311.069 238.410,311.069 238.239 C 311.069 238.068,312.185 237.085,313.550 236.054 C 314.914 235.023,316.031 234.047,316.031 233.884 C 316.031 233.721,316.288 233.588,316.603 233.588 C 316.918 233.588,317.176 233.450,317.176 233.281 C 317.176 233.112,318.409 232.039,319.917 230.895 C 321.424 229.752,322.927 228.554,323.256 228.232 C 324.246 227.266,327.401 224.809,327.653 224.809 C 327.783 224.809,328.392 224.294,329.008 223.664 C 329.623 223.034,330.209 222.519,330.309 222.519 C 330.410 222.519,331.146 221.919,331.944 221.185 C 332.743 220.451,333.612 219.850,333.874 219.849 C 334.136 219.848,334.351 219.711,334.351 219.544 C 334.351 218.512,343.596 212.595,345.208 212.595 C 345.693 212.595,346.755 212.318,347.567 211.978 C 349.226 211.285,353.927 211.408,354.684 212.165 C 354.921 212.402,355.669 212.595,356.347 212.595 C 357.025 212.595,357.837 212.853,358.152 213.168 C 358.466 213.483,358.922 213.740,359.164 213.740 C 360.140 213.740,365.336 218.489,366.056 220.038 C 366.251 220.458,366.558 221.059,366.739 221.374 C 368.510 224.462,368.511 224.469,368.511 230.209 C 368.511 234.995,368.415 235.905,367.843 236.536 C 367.476 236.942,367.176 237.540,367.176 237.865 C 367.176 238.190,366.918 238.670,366.603 238.931 C 366.288 239.193,366.031 239.600,366.031 239.838 C 366.031 240.431,363.185 243.401,360.878 245.216 C 359.828 246.041,358.798 246.897,358.588 247.118 C 357.978 247.759,354.661 250.382,354.460 250.382 C 354.255 250.382,352.586 251.774,350.236 253.907 C 349.371 254.692,348.464 255.336,348.219 255.339 C 347.974 255.341,347.716 255.498,347.646 255.687 C 347.576 255.876,346.231 257.027,344.656 258.245 C 343.082 259.463,341.657 260.683,341.489 260.955 C 341.321 261.227,340.934 261.450,340.630 261.450 C 340.325 261.450,340.076 261.581,340.076 261.742 C 340.076 261.902,339.089 262.796,337.882 263.728 C 336.675 264.660,335.550 265.645,335.382 265.917 C 335.214 266.189,334.827 266.412,334.523 266.412 C 334.219 266.412,333.969 266.543,333.969 266.702 C 333.969 266.862,332.736 267.933,331.228 269.083 C 329.720 270.233,328.217 271.439,327.888 271.763 C 326.945 272.693,323.750 275.191,323.504 275.191 C 323.382 275.191,322.961 275.491,322.569 275.859 C 320.855 277.463,319.568 278.547,318.347 279.414 C 317.627 279.925,316.754 280.601,316.408 280.916 C 315.336 281.893,313.994 282.982,312.405 284.165 C 311.565 284.790,310.792 285.394,310.687 285.507 C 310.582 285.620,309.637 286.394,308.588 287.227 C 307.538 288.059,306.594 288.835,306.489 288.950 C 306.384 289.065,305.697 289.564,304.962 290.058 C 304.227 290.553,303.454 291.150,303.244 291.385 C 303.034 291.619,302.004 292.489,300.954 293.317 C 299.905 294.145,298.753 295.086,298.396 295.408 C 298.039 295.729,297.522 296.164,297.247 296.374 C 296.972 296.584,295.948 297.400,294.970 298.187 C 293.992 298.974,293.086 299.618,292.957 299.618 C 292.828 299.618,292.255 300.091,291.684 300.668 C 290.461 301.906,285.679 305.725,285.354 305.725 C 285.230 305.725,284.491 306.344,283.713 307.100 C 282.934 307.856,281.857 308.754,281.320 309.095 C 280.783 309.436,280.206 309.933,280.038 310.201 C 279.870 310.468,279.580 310.687,279.394 310.687 C 279.207 310.687,278.490 311.203,277.799 311.834 C 277.108 312.465,276.204 313.089,275.789 313.220 C 275.375 313.352,274.801 313.694,274.513 313.982 C 274.226 314.269,273.734 314.504,273.419 314.504 C 273.104 314.504,272.589 314.761,272.274 315.076 C 271.959 315.391,271.358 315.649,270.938 315.649 C 270.518 315.649,269.917 315.906,269.602 316.221 C 269.287 316.536,268.565 316.794,267.997 316.794 C 267.429 316.794,266.539 317.094,266.020 317.462 C 264.471 318.558,58.771 318.492,57.061 317.395 C 51.985 314.139,52.211 315.912,52.361 280.478 L 52.481 252.367 54.008 250.566 C 54.848 249.575,56.394 248.312,57.443 247.760 L 59.351 246.756 75.369 246.627 C 93.118 246.485,92.050 246.640,95.229 243.747 C 96.279 242.792,97.266 242.005,97.424 241.997 C 97.581 241.990,98.031 241.684,98.424 241.317 C 99.954 239.885,101.441 238.638,104.008 236.636 C 105.477 235.490,106.851 234.364,107.061 234.133 C 107.379 233.784,109.641 231.956,111.751 230.344 C 112.026 230.134,112.543 229.695,112.900 229.369 C 113.257 229.043,114.752 227.845,116.221 226.706 C 117.691 225.568,118.979 224.547,119.084 224.437 C 119.610 223.885,121.775 222.519,122.122 222.519 C 122.340 222.519,122.519 222.360,122.519 222.165 C 122.519 221.971,122.991 221.572,123.569 221.280 C 124.146 220.987,125.942 220.030,127.561 219.152 C 129.179 218.275,130.694 217.557,130.928 217.557 C 131.161 217.557,131.610 217.300,131.925 216.985 C 132.240 216.670,132.871 216.407,133.329 216.400 C 133.786 216.393,134.494 216.136,134.901 215.828 C 135.309 215.519,136.000 215.267,136.438 215.267 C 136.876 215.267,137.595 215.015,138.035 214.707 C 138.475 214.399,139.586 214.032,140.505 213.891 C 141.424 213.751,142.519 213.457,142.939 213.239 C 143.359 213.020,144.905 212.715,146.374 212.561 C 147.844 212.407,149.647 212.111,150.382 211.904 C 152.816 211.219,248.435 211.336,249.757 212.025 " stroke="none" fill="#fbfbfb" fill-rule="evenodd"></path><path id="path2" d="M205.106 49.618 C 205.106 52.032,205.168 53.020,205.244 51.813 C 205.320 50.606,205.320 48.631,205.244 47.424 C 205.168 46.217,205.106 47.204,205.106 49.618 M214.218 133.110 C 217.104 133.175,221.827 133.175,224.714 133.110 C 227.600 133.045,225.239 132.992,219.466 132.992 C 213.693 132.992,211.331 133.045,214.218 133.110 M179.705 212.500 C 191.949 212.556,211.873 212.556,223.980 212.500 C 236.087 212.444,226.069 212.398,201.718 212.398 C 177.366 212.398,167.461 212.444,179.705 212.500 M69.179 247.614 C 73.325 247.676,80.110 247.676,84.256 247.614 C 88.402 247.552,85.010 247.502,76.718 247.502 C 68.426 247.502,65.033 247.552,69.179 247.614 M211.764 247.614 C 217.919 247.673,227.881 247.673,233.901 247.614 C 239.922 247.555,234.885 247.507,222.710 247.507 C 210.534 247.507,205.609 247.555,211.764 247.614 " stroke="none" fill="#7c7c7c" fill-rule="evenodd"></path><path id="path3" d="M155.821 212.477 C 156.188 212.573,156.789 212.573,157.156 212.477 C 157.524 212.381,157.223 212.302,156.489 212.302 C 155.754 212.302,155.453 212.381,155.821 212.477 " stroke="none" fill="#848484" fill-rule="evenodd"></path><path id="path4" d="M216.145 36.926 C 217.992 36.996,220.912 36.995,222.633 36.925 C 224.355 36.854,222.844 36.797,219.275 36.797 C 215.706 36.798,214.298 36.856,216.145 36.926 M233.657 49.691 C 233.619 52.565,233.717 54.997,233.874 55.095 C 234.031 55.193,234.115 53.614,234.059 51.587 C 233.880 45.055,233.727 44.335,233.657 49.691 M204.728 49.809 C 204.729 52.538,204.790 53.604,204.864 52.179 C 204.937 50.753,204.937 48.520,204.862 47.217 C 204.788 45.914,204.728 47.080,204.728 49.809 M183.379 65.744 L 181.870 67.366 183.492 65.858 C 185.001 64.455,185.290 64.122,185.001 64.122 C 184.939 64.122,184.209 64.852,183.379 65.744 M254.284 70.531 L 253.415 71.947 254.379 70.876 C 254.910 70.287,255.344 69.643,255.344 69.444 C 255.344 68.883,255.215 69.015,254.284 70.531 M249.791 75.286 L 248.282 76.908 249.905 75.400 C 250.797 74.570,251.527 73.840,251.527 73.778 C 251.527 73.489,251.194 73.778,249.791 75.286 M245.587 79.103 L 244.466 80.344 245.706 79.222 C 246.388 78.606,246.947 78.048,246.947 77.982 C 246.947 77.687,246.632 77.947,245.587 79.103 M213.645 81.583 C 216.636 81.648,221.531 81.648,224.523 81.583 C 227.514 81.519,225.067 81.466,219.084 81.466 C 213.101 81.466,210.654 81.519,213.645 81.583 M237.124 83.480 C 237.704 83.568,238.563 83.565,239.032 83.475 C 239.501 83.384,239.027 83.312,237.977 83.315 C 236.927 83.318,236.543 83.392,237.124 83.480 M175.316 86.069 C 175.318 87.538,175.387 88.093,175.469 87.301 C 175.552 86.509,175.551 85.306,175.466 84.629 C 175.382 83.951,175.314 84.599,175.316 86.069 M182.824 105.463 C 182.824 105.529,183.383 106.087,184.065 106.703 L 185.305 107.824 184.184 106.584 C 183.139 105.428,182.824 105.168,182.824 105.463 M254.008 107.634 C 255.254 108.893,256.360 109.924,256.465 109.924 C 256.570 109.924,255.636 108.893,254.389 107.634 C 253.143 106.374,252.037 105.344,251.932 105.344 C 251.827 105.344,252.761 106.374,254.008 107.634 M263.115 128.244 C 263.115 130.239,263.179 131.054,263.258 130.057 C 263.336 129.060,263.336 127.428,263.258 126.431 C 263.179 125.434,263.115 126.250,263.115 128.244 M234.058 128.244 C 234.058 128.979,234.137 129.280,234.233 128.912 C 234.329 128.545,234.329 127.944,234.233 127.576 C 234.137 127.209,234.058 127.510,234.058 128.244 M191.201 136.546 L 189.885 137.977 191.317 136.662 C 192.104 135.938,192.748 135.294,192.748 135.230 C 192.748 134.939,192.425 135.214,191.201 136.546 M184.900 142.462 L 183.779 143.702 185.019 142.581 C 186.175 141.536,186.435 141.221,186.140 141.221 C 186.074 141.221,185.516 141.780,184.900 142.462 M182.921 147.137 C 182.925 147.977,183.003 148.276,183.094 147.801 C 183.186 147.326,183.182 146.639,183.087 146.274 C 182.991 145.909,182.916 146.298,182.921 147.137 M241.603 157.061 C 241.078 157.361,240.821 157.607,241.031 157.607 C 241.240 157.607,241.842 157.361,242.366 157.061 C 242.891 156.761,243.149 156.516,242.939 156.516 C 242.729 156.516,242.128 156.761,241.603 157.061 M233.736 164.313 C 233.737 167.042,233.798 168.108,233.871 166.683 C 233.945 165.257,233.944 163.024,233.870 161.721 C 233.796 160.417,233.735 161.584,233.736 164.313 M204.664 164.885 C 204.647 167.510,204.752 169.954,204.896 170.317 C 205.040 170.681,205.107 168.963,205.046 166.501 C 204.885 160.102,204.700 159.315,204.664 164.885 M153.344 212.484 C 153.819 212.575,154.506 212.572,154.871 212.476 C 155.236 212.380,154.847 212.306,154.008 212.310 C 153.168 212.314,152.869 212.392,153.344 212.484 M258.206 217.939 C 259.026 218.779,259.783 219.466,259.888 219.466 C 259.993 219.466,259.408 218.779,258.588 217.939 C 257.768 217.099,257.011 216.412,256.906 216.412 C 256.801 216.412,257.386 217.099,258.206 217.939 M368.074 229.962 C 368.073 231.851,368.138 232.672,368.218 231.786 C 368.298 230.900,368.299 229.355,368.220 228.351 C 368.141 227.348,368.076 228.073,368.074 229.962 M263.102 229.962 C 263.104 231.431,263.173 231.986,263.256 231.194 C 263.338 230.402,263.337 229.200,263.253 228.522 C 263.168 227.844,263.101 228.492,263.102 229.962 M94.847 244.889 L 93.321 246.255 94.943 245.042 C 96.339 243.998,96.843 243.495,96.469 243.517 C 96.417 243.520,95.687 244.138,94.847 244.889 M198.473 248.282 C 197.948 248.582,197.691 248.828,197.901 248.828 C 198.111 248.828,198.712 248.582,199.237 248.282 C 199.761 247.982,200.019 247.737,199.809 247.737 C 199.599 247.737,198.998 247.982,198.473 248.282 M52.853 282.634 C 52.853 298.378,52.900 304.874,52.958 297.070 C 53.015 289.266,53.016 276.384,52.958 268.444 C 52.900 260.504,52.853 266.889,52.853 282.634 M193.248 256.298 C 193.250 257.557,193.321 258.027,193.406 257.340 C 193.491 256.654,193.490 255.624,193.402 255.050 C 193.315 254.477,193.246 255.038,193.248 256.298 M268.993 264.774 C 269.468 264.865,270.155 264.862,270.520 264.766 C 270.885 264.671,270.496 264.596,269.656 264.600 C 268.817 264.604,268.518 264.682,268.993 264.774 M294.642 297.356 L 293.321 298.528 294.752 297.501 C 296.017 296.594,296.428 296.183,296.073 296.183 C 296.013 296.183,295.369 296.711,294.642 297.356 M109.797 317.843 C 137.543 317.898,183.058 317.898,210.943 317.844 C 238.827 317.789,216.126 317.745,160.496 317.745 C 104.866 317.745,82.052 317.789,109.797 317.843 " stroke="none" fill="#919191" fill-rule="evenodd"></path><path id="path5" d="M210.066 38.152 C 208.990 38.769,207.531 40.005,206.824 40.898 L 205.538 42.522 205.345 48.533 C 205.120 55.557,205.378 55.126,200.723 56.253 C 184.493 60.184,173.739 74.591,175.903 89.504 C 176.188 91.464,176.243 90.981,176.286 86.152 C 176.322 82.096,176.497 80.125,176.908 79.140 C 177.223 78.386,177.481 77.522,177.481 77.220 C 177.481 76.690,180.098 71.000,180.520 70.611 C 180.634 70.506,181.222 69.691,181.826 68.800 C 183.390 66.494,187.708 62.615,190.655 60.868 C 194.590 58.535,197.066 57.552,201.336 56.628 C 205.852 55.651,205.725 55.859,205.725 49.444 C 205.725 42.353,206.708 40.186,210.832 38.190 C 213.247 37.021,225.390 37.007,227.686 38.171 C 231.945 40.330,232.819 42.262,232.822 49.523 C 232.825 55.521,232.943 55.734,236.670 56.437 C 250.755 59.095,258.087 65.437,253.340 70.855 C 251.258 73.231,244.340 79.676,241.824 81.584 C 240.308 82.734,236.378 82.779,233.588 81.679 C 231.793 80.972,230.751 80.916,219.392 80.916 L 207.133 80.916 205.816 81.921 C 201.560 85.167,203.738 90.561,209.669 91.465 C 210.544 91.598,211.431 91.840,211.641 92.003 C 211.851 92.166,212.882 92.473,213.931 92.685 C 214.981 92.897,217.214 93.443,218.893 93.898 C 223.846 95.239,227.960 96.312,232.634 97.479 C 237.577 98.715,238.401 98.951,239.561 99.466 C 240.223 99.760,240.910 99.999,241.088 99.998 C 241.431 99.996,247.003 102.723,247.328 103.051 C 247.759 103.487,249.987 104.962,250.214 104.962 C 250.624 104.962,256.684 111.182,257.465 112.405 C 261.411 118.580,262.025 120.718,262.013 128.244 C 261.988 143.387,253.394 153.532,236.982 157.795 C 232.690 158.910,232.838 158.664,232.828 164.695 C 232.812 174.521,230.634 176.638,220.038 177.120 L 214.313 177.381 220.420 177.293 C 230.957 177.140,233.152 175.014,233.563 164.559 L 233.779 159.081 237.214 158.192 C 267.613 150.323,272.355 115.801,245.031 101.280 C 242.739 100.062,239.864 98.908,238.017 98.465 C 237.365 98.309,235.458 97.800,233.779 97.335 C 232.099 96.869,228.836 96.007,226.527 95.418 C 224.218 94.829,219.924 93.713,216.985 92.937 C 214.046 92.161,211.023 91.377,210.267 91.194 C 203.914 89.657,201.837 85.155,206.182 82.338 L 207.786 81.298 219.065 81.302 C 229.898 81.307,230.479 81.345,233.776 82.257 C 239.865 83.941,240.296 83.774,247.894 76.776 C 255.251 69.999,256.285 68.207,254.818 64.778 C 253.429 61.532,245.578 57.658,237.214 56.091 C 233.450 55.386,233.588 55.618,233.588 49.968 C 233.588 39.312,231.039 37.021,219.195 37.026 L 212.023 37.030 210.066 38.152 M176.367 92.295 C 176.313 93.165,177.574 96.632,178.745 98.833 C 182.377 105.659,188.182 110.854,195.804 114.097 C 198.598 115.286,199.751 115.639,207.061 117.538 C 209.370 118.138,212.634 119.008,214.313 119.471 C 215.992 119.934,218.225 120.535,219.275 120.806 C 220.324 121.078,223.158 121.811,225.573 122.436 C 232.861 124.324,234.351 125.323,234.351 128.321 C 234.351 132.607,233.311 132.970,220.229 133.241 L 209.351 133.466 220.430 133.432 C 232.821 133.393,232.822 133.393,234.431 130.408 C 236.135 127.246,233.023 122.901,229.053 122.901 C 228.636 122.901,227.810 122.710,227.220 122.477 C 226.629 122.244,225.200 121.831,224.046 121.559 C 222.891 121.287,221.002 120.804,219.847 120.484 C 218.693 120.165,216.975 119.709,216.031 119.472 C 214.071 118.980,210.733 118.056,208.802 117.471 C 208.080 117.253,206.534 116.852,205.367 116.582 C 200.138 115.368,199.406 115.167,199.065 114.845 C 198.865 114.657,198.470 114.504,198.185 114.504 C 197.901 114.504,196.948 114.186,196.067 113.797 C 195.186 113.408,194.208 112.977,193.893 112.838 C 193.578 112.700,192.805 112.247,192.176 111.832 C 191.546 111.417,190.773 110.959,190.458 110.815 C 188.779 110.045,181.298 103.081,181.298 102.288 C 181.298 102.109,181.080 101.736,180.815 101.459 C 180.154 100.769,177.485 95.343,177.464 94.646 C 177.440 93.883,176.406 91.665,176.367 92.295 M197.519 131.842 C 195.930 132.557,190.495 137.348,185.042 142.841 C 179.464 148.460,186.224 154.989,200.954 158.209 C 205.073 159.110,204.856 158.748,205.023 164.993 C 205.235 172.880,208.034 177.154,212.940 177.085 C 213.654 177.076,213.348 176.862,211.844 176.321 C 206.714 174.477,205.725 172.680,205.725 165.205 C 205.725 158.589,205.836 158.790,201.661 157.867 C 192.657 155.878,185.549 152.579,184.173 149.751 C 182.609 146.536,183.454 144.833,189.381 139.254 C 197.729 131.398,198.575 130.967,203.173 132.238 C 204.472 132.597,206.393 132.946,207.443 133.013 C 208.492 133.080,208.836 133.054,208.206 132.955 C 207.576 132.856,205.970 132.443,204.635 132.036 C 201.827 131.181,199.152 131.108,197.519 131.842 M150.763 212.860 C 141.488 213.571,127.879 218.958,119.847 225.100 C 116.356 227.770,103.732 237.932,99.427 241.538 C 96.235 244.213,92.801 246.900,92.105 247.269 C 91.513 247.582,86.675 247.710,75.392 247.710 C 57.460 247.710,58.035 247.623,55.205 250.756 C 52.984 253.214,53.053 252.185,53.053 282.674 C 53.053 314.470,52.879 312.394,55.787 315.129 C 58.616 317.788,48.652 317.557,160.518 317.557 C 270.054 317.557,262.303 317.698,268.511 315.599 C 273.428 313.936,275.251 312.760,284.700 305.153 C 288.351 302.214,292.213 299.131,293.283 298.303 C 294.354 297.474,297.884 294.640,301.130 292.005 C 304.375 289.370,308.343 286.183,309.947 284.924 C 311.551 283.664,318.413 278.168,325.197 272.710 C 343.446 258.028,343.465 258.012,346.597 255.535 C 361.322 243.882,363.284 242.178,365.059 239.504 C 373.366 226.990,363.084 210.848,348.126 212.921 C 343.196 213.604,341.554 214.710,321.211 231.048 C 320.386 231.710,318.567 233.197,317.168 234.351 C 315.769 235.506,312.751 237.932,310.461 239.742 C 305.085 243.992,296.341 250.991,292.959 253.752 C 278.754 265.346,281.143 264.885,235.232 264.885 L 199.004 264.885 197.231 263.761 C 190.605 259.559,192.213 249.534,199.809 247.685 L 200.954 247.406 199.854 247.367 C 199.249 247.346,198.157 247.697,197.427 248.149 C 190.818 252.233,190.970 261.015,197.710 264.556 L 199.427 265.458 232.634 265.577 C 267.342 265.702,271.965 265.547,276.685 264.097 C 279.274 263.302,284.073 261.093,284.288 260.599 C 284.358 260.437,284.584 260.305,284.791 260.305 C 285.270 260.305,288.228 258.277,289.589 257.015 C 290.161 256.486,291.792 255.165,293.215 254.080 C 294.638 252.995,295.802 251.977,295.802 251.817 C 295.802 251.657,296.051 251.527,296.355 251.527 C 296.660 251.527,297.046 251.305,297.214 251.034 C 297.382 250.763,299.494 249.007,301.908 247.132 C 304.323 245.258,306.469 243.531,306.679 243.295 C 306.889 243.059,308.125 242.064,309.425 241.084 C 310.725 240.104,312.013 239.080,312.288 238.809 C 312.562 238.538,314.418 237.051,316.412 235.504 C 318.406 233.958,320.124 232.582,320.229 232.446 C 320.334 232.311,322.052 230.923,324.046 229.363 C 328.575 225.821,328.724 225.701,330.871 223.912 C 333.909 221.379,334.137 221.198,335.115 220.555 C 335.639 220.210,336.412 219.607,336.832 219.216 C 339.201 217.009,341.806 215.380,345.250 213.952 C 350.353 211.836,358.748 213.957,362.832 218.395 C 371.232 227.524,369.147 237.174,356.679 246.865 C 354.370 248.659,352.395 250.237,352.290 250.371 C 352.185 250.504,350.811 251.628,349.237 252.869 C 347.662 254.110,346.165 255.303,345.910 255.520 C 345.139 256.178,344.613 256.596,340.840 259.550 C 338.845 261.112,337.042 262.577,336.832 262.807 C 336.622 263.037,335.248 264.153,333.779 265.287 C 332.309 266.420,331.021 267.444,330.916 267.560 C 330.811 267.677,329.094 269.043,327.099 270.596 C 325.105 272.150,323.387 273.528,323.282 273.658 C 323.124 273.855,321.335 275.293,316.794 278.874 C 313.585 281.404,307.784 286.075,307.634 286.250 C 307.529 286.372,305.953 287.625,304.133 289.035 C 302.313 290.444,300.595 291.819,300.316 292.090 C 300.037 292.360,298.263 293.765,296.374 295.211 C 294.485 296.658,292.767 298.029,292.557 298.258 C 292.347 298.487,290.973 299.604,289.504 300.740 C 288.034 301.876,286.660 302.993,286.450 303.222 C 283.860 306.053,273.558 313.122,270.038 314.483 C 268.779 314.971,267.405 315.502,266.985 315.665 C 262.960 317.224,266.234 317.178,160.202 317.177 L 59.527 317.176 58.103 316.269 C 53.100 313.082,53.435 315.498,53.435 282.634 C 53.435 251.206,53.269 253.356,55.916 250.606 C 58.177 248.258,57.844 248.300,75.764 248.092 L 92.178 247.901 94.658 246.029 C 96.021 244.999,97.309 243.961,97.519 243.723 C 97.729 243.484,99.189 242.275,100.763 241.035 C 102.338 239.796,103.712 238.682,103.817 238.561 C 103.922 238.440,105.210 237.413,106.679 236.279 C 108.149 235.145,109.523 234.026,109.733 233.792 C 109.943 233.558,111.403 232.344,112.977 231.093 C 114.552 229.843,115.926 228.725,116.031 228.609 C 117.973 226.465,125.354 221.675,130.344 219.321 C 135.759 216.766,139.527 215.513,146.756 213.864 C 149.628 213.209,152.778 213.168,199.809 213.168 L 249.809 213.168 252.701 214.615 C 265.532 221.038,265.515 238.964,252.672 245.192 C 249.648 246.658,248.688 246.718,224.618 246.936 L 200.954 247.152 224.463 247.240 C 250.485 247.338,249.390 247.427,254.214 244.802 C 267.632 237.499,264.562 216.455,249.576 213.000 C 248.036 212.645,155.287 212.514,150.763 212.860 " stroke="none" fill="#747474" fill-rule="evenodd"></path><path id="path6" d="M207.419 39.408 L 206.298 40.649 207.538 39.528 C 208.220 38.911,208.779 38.353,208.779 38.287 C 208.779 37.992,208.464 38.252,207.419 39.408 M204.280 50.254 C 204.222 53.548,204.060 54.954,203.721 55.091 C 203.348 55.242,203.350 55.290,203.733 55.313 C 204.510 55.361,204.614 54.620,204.484 49.977 L 204.362 45.611 204.280 50.254 M236.673 55.481 C 236.760 55.556,237.347 55.733,237.977 55.874 C 238.813 56.061,238.968 56.026,238.550 55.743 C 238.034 55.394,236.290 55.150,236.673 55.481 M190.356 59.747 C 189.572 60.279,188.931 60.806,188.931 60.918 C 188.931 61.029,189.404 60.792,189.981 60.390 C 190.558 59.987,191.374 59.466,191.794 59.230 C 192.214 58.995,192.382 58.797,192.169 58.790 C 191.955 58.784,191.139 59.214,190.356 59.747 M255.707 66.899 C 255.892 68.472,255.900 68.480,256.030 67.222 C 256.103 66.514,256.017 65.788,255.839 65.610 C 255.662 65.433,255.602 66.013,255.707 66.899 M251.318 74.141 L 249.809 75.763 251.431 74.255 C 252.940 72.851,253.229 72.519,252.940 72.519 C 252.878 72.519,252.148 73.249,251.318 74.141 M246.926 78.149 L 245.611 79.580 247.042 78.265 C 248.374 77.041,248.649 76.718,248.357 76.718 C 248.294 76.718,247.649 77.362,246.926 78.149 M242.420 82.074 C 241.236 83.060,241.771 83.048,243.026 82.061 C 243.559 81.641,243.844 81.303,243.658 81.310 C 243.473 81.317,242.915 81.661,242.420 82.074 M175.050 82.920 C 174.755 84.018,174.809 88.089,175.133 89.240 C 175.270 89.725,175.382 88.308,175.382 86.091 C 175.382 81.679,175.382 81.680,175.050 82.920 M237.314 83.858 C 237.788 83.949,238.475 83.946,238.840 83.850 C 239.205 83.754,238.817 83.680,237.977 83.684 C 237.137 83.688,236.839 83.766,237.314 83.858 M248.092 102.429 C 248.092 102.534,248.607 102.987,249.237 103.435 C 249.866 103.884,250.382 104.165,250.382 104.060 C 250.382 103.955,249.866 103.502,249.237 103.053 C 248.607 102.605,248.092 102.324,248.092 102.429 M254.389 107.634 C 255.423 108.683,256.355 109.542,256.460 109.542 C 256.565 109.542,255.805 108.683,254.771 107.634 C 253.737 106.584,252.805 105.725,252.700 105.725 C 252.595 105.725,253.355 106.584,254.389 107.634 M186.641 109.266 C 186.641 109.339,187.199 109.807,187.882 110.307 C 188.649 110.868,188.916 110.961,188.581 110.548 C 188.073 109.922,186.641 108.976,186.641 109.266 M198.092 130.933 C 197.673 131.216,197.828 131.252,198.664 131.065 C 200.068 130.751,200.372 130.532,199.396 130.540 C 198.993 130.543,198.406 130.720,198.092 130.933 M200.763 130.682 C 200.763 130.763,201.270 130.904,201.888 130.994 C 202.507 131.085,202.926 131.019,202.820 130.847 C 202.631 130.541,200.763 130.391,200.763 130.682 M263.021 132.125 C 262.997 132.475,262.878 133.077,262.757 133.461 C 262.549 134.124,262.561 134.125,262.974 133.480 C 263.214 133.106,263.333 132.505,263.238 132.144 C 263.083 131.554,263.061 131.552,263.021 132.125 M213.669 132.728 C 216.883 132.792,222.036 132.792,225.119 132.728 C 228.202 132.664,225.573 132.612,219.275 132.612 C 212.977 132.612,210.454 132.664,213.669 132.728 M188.529 138.836 L 187.214 140.267 188.645 138.952 C 189.432 138.228,190.076 137.584,190.076 137.521 C 190.076 137.229,189.753 137.504,188.529 138.836 M254.580 149.046 C 253.653 149.990,252.980 150.763,253.085 150.763 C 253.190 150.763,254.035 149.990,254.962 149.046 C 255.889 148.101,256.562 147.328,256.457 147.328 C 256.352 147.328,255.507 148.101,254.580 149.046 M251.262 152.127 L 250.191 153.109 251.431 152.246 C 252.114 151.772,252.672 151.330,252.672 151.264 C 252.672 150.963,252.250 151.221,251.262 152.127 M191.603 155.916 C 192.128 156.216,192.729 156.461,192.939 156.461 C 193.149 156.461,192.891 156.216,192.366 155.916 C 191.842 155.616,191.240 155.371,191.031 155.371 C 190.821 155.371,191.078 155.616,191.603 155.916 M204.197 164.426 L 204.386 169.656 204.495 164.726 C 204.555 162.014,204.470 159.660,204.306 159.495 C 204.142 159.331,204.093 161.550,204.197 164.426 M230.269 175.410 L 229.198 176.392 230.439 175.529 C 231.121 175.054,231.679 174.612,231.679 174.547 C 231.679 174.245,231.257 174.504,230.269 175.410 M216.126 177.765 C 217.963 177.835,220.969 177.835,222.805 177.765 C 224.642 177.695,223.139 177.638,219.466 177.638 C 215.792 177.638,214.289 177.695,216.126 177.765 M163.931 212.111 C 190.995 212.357,249.148 212.380,248.555 212.145 C 248.195 212.002,226.517 211.914,200.382 211.948 C 174.246 211.983,157.844 212.056,163.931 212.111 M349.046 212.214 C 348.017 212.475,347.998 212.506,348.855 212.512 C 349.380 212.516,350.239 212.382,350.763 212.214 C 352.046 211.803,350.660 211.803,349.046 212.214 M362.786 217.176 C 363.606 218.015,364.363 218.702,364.468 218.702 C 364.573 218.702,363.988 218.015,363.168 217.176 C 362.348 216.336,361.591 215.649,361.486 215.649 C 361.381 215.649,361.966 216.336,362.786 217.176 M256.526 216.126 C 256.617 216.178,257.461 216.908,258.403 217.748 L 260.115 219.275 258.606 217.653 C 257.776 216.760,256.931 216.031,256.729 216.031 C 256.527 216.031,256.436 216.073,256.526 216.126 M105.153 236.116 C 104.466 236.700,104.326 236.933,104.802 236.696 C 105.502 236.348,106.814 235.092,106.440 235.128 C 106.362 235.136,105.782 235.580,105.153 236.116 M309.351 239.927 L 307.824 241.294 309.447 240.080 C 310.843 239.036,311.346 238.533,310.973 238.555 C 310.921 238.558,310.191 239.176,309.351 239.927 M362.768 242.844 L 361.260 244.466 362.882 242.957 C 363.774 242.127,364.504 241.397,364.504 241.335 C 364.504 241.046,364.171 241.335,362.768 242.844 M92.939 246.002 L 91.794 246.938 76.336 247.042 L 60.878 247.146 76.350 247.237 L 91.823 247.328 93.144 246.199 C 94.734 244.840,94.562 244.675,92.939 246.002 M211.355 247.996 C 217.705 248.055,228.096 248.055,234.447 247.996 C 240.797 247.937,235.601 247.889,222.901 247.889 C 210.200 247.889,205.005 247.937,211.355 247.996 M195.391 250.668 L 194.466 251.718 195.611 250.763 C 196.240 250.239,196.827 249.766,196.915 249.714 C 197.002 249.661,196.903 249.618,196.695 249.618 C 196.487 249.618,195.900 250.091,195.391 250.668 M193.955 252.879 C 193.316 254.282,193.438 254.582,194.129 253.306 C 194.452 252.710,194.645 252.151,194.558 252.064 C 194.470 251.977,194.199 252.343,193.955 252.879 M349.237 253.869 L 347.519 255.424 349.136 254.211 C 350.542 253.156,351.445 252.265,351.072 252.301 C 351.007 252.308,350.181 253.013,349.237 253.869 M193.511 258.543 C 193.511 258.953,194.647 261.069,194.867 261.069 C 194.972 261.069,194.774 260.510,194.427 259.828 C 193.718 258.435,193.511 258.145,193.511 258.543 M338.335 262.691 L 337.214 263.931 338.454 262.810 C 339.136 262.194,339.695 261.635,339.695 261.570 C 339.695 261.275,339.380 261.535,338.335 262.691 M217.844 264.790 C 227.133 264.847,242.333 264.847,251.622 264.790 C 260.911 264.733,253.311 264.687,234.733 264.687 C 216.155 264.687,208.554 264.733,217.844 264.790 M304.315 289.913 L 303.244 290.895 304.485 290.032 C 305.167 289.558,305.725 289.116,305.725 289.050 C 305.725 288.749,305.303 289.007,304.315 289.913 M298.208 294.875 L 297.137 295.857 298.378 294.994 C 299.060 294.520,299.618 294.078,299.618 294.012 C 299.618 293.711,299.196 293.969,298.208 294.875 M55.153 315.267 C 55.973 316.107,56.729 316.794,56.834 316.794 C 56.939 316.794,56.354 316.107,55.534 315.267 C 54.714 314.427,53.958 313.740,53.853 313.740 C 53.748 313.740,54.333 314.427,55.153 315.267 M57.802 317.345 C 58.209 317.672,58.811 317.925,59.138 317.909 C 59.652 317.883,59.655 317.850,59.160 317.666 C 58.845 317.550,58.244 317.296,57.824 317.103 C 57.073 316.757,57.073 316.761,57.802 317.345 " stroke="none" fill="#bcbcbc" fill-rule="evenodd"></path><path id="path7" d="M263.487 128.244 C 263.487 129.819,263.554 130.463,263.637 129.676 C 263.719 128.888,263.719 127.600,263.637 126.813 C 263.554 126.026,263.487 126.670,263.487 128.244 M263.477 229.962 C 263.479 231.221,263.550 231.691,263.635 231.005 C 263.720 230.319,263.719 229.288,263.631 228.715 C 263.544 228.141,263.475 228.702,263.477 229.962 M54.747 250.095 L 53.626 251.336 54.866 250.215 C 56.023 249.170,56.282 248.855,55.987 248.855 C 55.922 248.855,55.364 249.413,54.747 250.095 " stroke="none" fill="#c4c4c4" fill-rule="evenodd"></path><path id="path8" d="M209.710 37.202 C 209.303 37.510,209.141 37.762,209.351 37.762 C 209.561 37.762,210.066 37.510,210.474 37.202 C 210.881 36.893,211.043 36.641,210.833 36.641 C 210.623 36.641,210.118 36.893,209.710 37.202 M229.409 38.013 C 230.574 38.765,231.857 39.871,232.260 40.471 C 232.664 41.071,233.061 41.494,233.143 41.411 C 233.641 40.914,228.841 36.639,227.790 36.643 C 227.515 36.644,228.243 37.260,229.409 38.013 M206.855 39.375 C 206.024 40.249,205.344 41.131,205.344 41.335 C 205.344 41.539,205.730 41.211,206.202 40.606 C 206.675 40.000,207.490 39.124,208.015 38.658 C 208.540 38.192,208.834 37.805,208.668 37.798 C 208.502 37.792,207.686 38.501,206.855 39.375 M204.661 42.760 C 204.407 43.168,204.205 43.804,204.213 44.174 C 204.222 44.555,204.473 44.283,204.792 43.549 C 205.429 42.081,205.357 41.646,204.661 42.760 M234.121 48.855 C 234.121 51.899,234.180 53.144,234.253 51.622 C 234.325 50.100,234.325 47.610,234.253 46.088 C 234.180 44.566,234.121 45.811,234.121 48.855 M203.966 50.000 C 203.966 52.834,204.026 53.993,204.100 52.576 C 204.173 51.159,204.173 48.841,204.100 47.424 C 204.026 46.007,203.966 47.166,203.966 50.000 M199.427 55.556 C 198.464 56.027,198.434 56.078,199.237 55.883 C 199.761 55.756,200.878 55.518,201.718 55.354 L 203.244 55.057 201.908 55.027 C 201.174 55.010,200.057 55.248,199.427 55.556 M236.169 55.232 C 236.643 55.323,237.330 55.320,237.695 55.224 C 238.060 55.129,237.672 55.054,236.832 55.058 C 235.992 55.062,235.694 55.140,236.169 55.232 M238.931 55.725 C 239.246 55.929,239.761 56.095,240.076 56.095 C 240.585 56.095,240.585 56.054,240.076 55.725 C 239.761 55.522,239.246 55.355,238.931 55.355 C 238.422 55.355,238.422 55.396,238.931 55.725 M194.870 57.073 C 193.927 57.786,194.547 57.778,195.802 57.061 C 196.355 56.745,196.515 56.515,196.183 56.514 C 195.868 56.513,195.277 56.765,194.870 57.073 M243.511 57.061 C 244.036 57.361,244.723 57.612,245.038 57.618 C 245.353 57.624,245.119 57.372,244.517 57.059 C 243.124 56.332,242.240 56.334,243.511 57.061 M192.366 58.206 C 191.762 58.935,192.329 58.927,193.298 58.194 C 193.891 57.745,193.920 57.634,193.440 57.634 C 193.111 57.634,192.628 57.891,192.366 58.206 M246.733 58.218 C 247.141 58.526,247.646 58.779,247.856 58.779 C 248.066 58.779,247.904 58.526,247.497 58.218 C 247.089 57.910,246.584 57.658,246.374 57.658 C 246.164 57.658,246.326 57.910,246.733 58.218 M249.068 59.339 C 250.038 60.072,250.605 60.080,250.000 59.351 C 249.739 59.036,249.255 58.779,248.926 58.779 C 248.447 58.779,248.475 58.890,249.068 59.339 M187.595 61.301 L 186.069 62.668 187.786 61.413 C 188.731 60.723,189.575 60.105,189.663 60.041 C 189.750 59.976,189.664 59.926,189.472 59.929 C 189.280 59.932,188.435 60.550,187.595 61.301 M254.353 62.922 C 255.161 63.831,255.344 63.914,255.344 63.372 C 255.344 63.170,254.957 62.801,254.485 62.553 C 253.631 62.105,253.630 62.107,254.353 62.922 M183.755 64.585 C 183.138 65.259,182.970 65.559,183.380 65.253 C 184.560 64.371,185.525 63.359,185.186 63.359 C 185.015 63.359,184.371 63.910,183.755 64.585 M255.557 64.695 C 256.426 67.098,256.238 68.603,254.807 70.712 C 254.292 71.472,254.089 72.009,254.357 71.906 C 255.980 71.283,257.069 66.126,255.885 64.672 C 255.290 63.942,255.285 63.942,255.557 64.695 M181.297 67.271 C 180.735 68.039,180.642 68.305,181.055 67.970 C 181.681 67.462,182.627 66.031,182.337 66.031 C 182.264 66.031,181.796 66.589,181.297 67.271 M178.721 70.824 C 178.459 71.109,178.244 71.559,178.244 71.825 C 178.244 72.090,178.519 71.914,178.856 71.434 C 179.544 70.451,179.452 70.031,178.721 70.824 M250.361 75.477 L 249.046 76.908 250.477 75.593 C 251.809 74.369,252.084 74.046,251.792 74.046 C 251.729 74.046,251.085 74.690,250.361 75.477 M175.965 76.880 C 175.749 77.448,175.580 78.202,175.589 78.555 C 175.598 78.909,175.848 78.518,176.145 77.686 C 176.746 75.998,176.581 75.259,175.965 76.880 M244.878 80.379 C 243.425 81.724,242.364 82.824,242.520 82.824 C 242.676 82.824,243.629 82.043,244.638 81.087 C 245.647 80.132,246.794 79.115,247.186 78.828 C 247.579 78.541,247.814 78.223,247.709 78.121 C 247.605 78.018,246.331 79.035,244.878 80.379 M174.914 80.766 C 174.368 82.101,174.560 90.748,175.147 91.298 C 175.593 91.715,175.631 91.643,175.387 90.840 C 174.820 88.973,174.712 83.512,175.211 82.000 C 175.705 80.503,175.451 79.450,174.914 80.766 M207.674 82.093 C 206.198 82.684,207.008 82.897,208.909 82.418 C 210.660 81.977,228.950 82.119,231.489 82.593 C 232.299 82.744,232.187 82.650,231.107 82.272 C 229.293 81.638,209.197 81.484,207.674 82.093 M205.369 83.751 C 204.890 84.261,204.589 84.905,204.700 85.183 C 204.833 85.517,204.912 85.461,204.932 85.019 C 204.948 84.652,205.092 84.351,205.252 84.351 C 205.411 84.351,205.756 84.008,206.018 83.588 C 206.655 82.568,206.427 82.625,205.369 83.751 M234.183 83.385 C 234.590 83.693,235.267 83.944,235.687 83.942 C 236.216 83.940,236.055 83.768,235.166 83.382 C 233.537 82.675,233.245 82.675,234.183 83.385 M240.649 83.411 C 240.019 83.699,239.772 83.943,240.099 83.952 C 240.426 83.962,241.027 83.717,241.435 83.409 C 242.339 82.725,242.146 82.725,240.649 83.411 M204.626 86.450 C 204.574 87.395,206.675 89.703,207.558 89.670 C 208.086 89.651,208.065 89.588,207.443 89.331 C 206.439 88.915,205.085 87.410,204.853 86.450 L 204.669 85.687 204.626 86.450 M209.733 90.281 C 210.363 90.569,211.135 90.806,211.450 90.808 C 211.765 90.809,211.445 90.559,210.739 90.252 C 209.115 89.548,208.189 89.574,209.733 90.281 M212.977 91.089 C 213.292 91.192,213.936 91.465,214.408 91.695 C 214.880 91.925,215.376 92.003,215.510 91.869 C 215.803 91.576,213.958 90.827,213.048 90.870 C 212.532 90.894,212.518 90.937,212.977 91.089 M218.130 92.568 C 218.969 92.871,219.828 93.107,220.038 93.093 C 220.715 93.048,218.156 92.019,217.366 92.019 C 216.947 92.018,217.290 92.266,218.130 92.568 M175.968 94.708 C 175.960 94.841,176.205 95.528,176.512 96.235 C 176.818 96.941,177.070 97.261,177.071 96.947 C 177.072 96.397,175.995 94.212,175.968 94.708 M228.435 95.243 C 229.065 95.531,229.838 95.768,230.153 95.769 C 230.468 95.771,230.147 95.521,229.441 95.214 C 227.818 94.509,226.891 94.536,228.435 95.243 M232.773 96.389 C 233.479 96.696,234.252 96.940,234.490 96.933 C 235.245 96.909,233.051 95.829,232.252 95.830 C 231.725 95.831,231.886 96.004,232.773 96.389 M236.450 97.219 C 236.870 97.320,237.377 97.557,237.576 97.747 C 237.776 97.937,238.119 98.086,238.340 98.079 C 238.560 98.073,238.407 97.815,238.000 97.507 C 237.592 97.199,236.905 96.966,236.473 96.991 C 235.706 97.034,235.706 97.040,236.450 97.219 M177.124 97.901 C 177.124 98.111,177.376 98.616,177.684 99.023 C 177.992 99.431,178.244 99.592,178.244 99.383 C 178.244 99.173,177.992 98.667,177.684 98.260 C 177.376 97.852,177.124 97.691,177.124 97.901 M240.076 98.364 C 240.391 98.481,240.992 98.734,241.412 98.928 C 242.163 99.273,242.164 99.269,241.435 98.685 C 241.027 98.359,240.426 98.105,240.099 98.122 C 239.585 98.148,239.582 98.181,240.076 98.364 M244.275 100.191 C 244.536 100.506,244.922 100.763,245.132 100.763 C 245.345 100.763,245.303 100.510,245.038 100.191 C 244.777 99.876,244.391 99.618,244.181 99.618 C 243.968 99.618,244.010 99.871,244.275 100.191 M178.258 100.264 C 178.266 100.434,178.709 101.088,179.243 101.718 L 180.215 102.863 179.614 101.646 C 179.028 100.459,178.231 99.647,178.258 100.264 M250.578 103.912 C 253.025 105.779,256.966 109.797,258.256 111.742 C 259.005 112.870,259.724 113.685,259.855 113.555 C 259.985 113.424,259.925 113.198,259.721 113.052 C 259.516 112.906,258.834 112.025,258.205 111.095 C 256.423 108.462,250.742 103.053,249.757 103.053 C 249.590 103.053,249.959 103.440,250.578 103.912 M183.408 106.723 C 185.928 109.171,187.736 110.726,189.027 111.556 C 190.744 112.661,190.222 112.034,188.073 110.411 C 186.970 109.578,185.038 107.988,183.779 106.877 C 181.503 104.870,181.501 104.869,183.408 106.723 M193.893 114.313 C 194.154 114.628,194.648 114.866,194.989 114.841 C 195.514 114.804,195.506 114.770,194.943 114.622 C 194.575 114.526,194.275 114.289,194.275 114.094 C 194.275 113.900,194.082 113.740,193.846 113.740 C 193.550 113.740,193.565 113.917,193.893 114.313 M259.926 114.219 C 259.925 114.377,260.267 115.148,260.687 115.931 C 261.107 116.714,261.449 117.100,261.448 116.788 C 261.446 116.476,261.104 115.706,260.687 115.076 C 260.270 114.447,259.928 114.061,259.926 114.219 M196.397 115.446 C 196.804 115.754,197.395 116.006,197.710 116.005 C 198.042 116.004,197.882 115.774,197.328 115.458 C 196.074 114.741,195.454 114.733,196.397 115.446 M199.948 116.618 C 200.655 116.925,201.428 117.162,201.666 117.145 C 202.268 117.101,199.942 116.065,199.237 116.063 C 198.922 116.061,199.242 116.311,199.948 116.618 M205.534 118.144 C 206.164 118.432,207.109 118.664,207.634 118.659 C 208.212 118.654,207.835 118.442,206.679 118.121 C 204.319 117.465,204.064 117.470,205.534 118.144 M261.463 117.767 C 261.456 117.988,261.605 118.331,261.795 118.531 C 261.985 118.730,262.222 119.237,262.323 119.656 C 262.502 120.401,262.508 120.401,262.551 119.634 C 262.575 119.202,262.343 118.515,262.035 118.107 C 261.727 117.700,261.469 117.547,261.463 117.767 M209.710 119.287 C 210.118 119.595,210.805 119.841,211.237 119.832 C 211.817 119.821,211.686 119.671,210.739 119.260 C 209.121 118.557,208.758 118.567,209.710 119.287 M214.122 120.420 C 214.647 120.720,215.420 120.958,215.840 120.950 C 216.340 120.940,216.142 120.757,215.267 120.420 C 213.501 119.740,212.932 119.740,214.122 120.420 M217.748 121.265 C 218.168 121.366,218.675 121.603,218.874 121.793 C 219.073 121.982,219.589 122.131,220.019 122.122 C 220.593 122.112,220.459 121.959,219.517 121.550 C 218.811 121.243,217.952 121.012,217.609 121.037 C 217.170 121.068,217.211 121.135,217.748 121.265 M262.785 121.947 C 262.952 122.366,263.227 123.397,263.396 124.237 C 263.702 125.751,263.704 125.749,263.575 123.917 C 263.504 122.902,263.229 121.871,262.964 121.627 C 262.584 121.277,262.547 121.344,262.785 121.947 M228.084 124.039 C 228.290 124.245,229.055 124.510,229.783 124.629 L 231.107 124.844 229.580 124.260 C 227.776 123.569,227.587 123.541,228.084 124.039 M231.679 124.878 C 231.679 124.989,232.109 125.543,232.634 126.109 C 233.158 126.675,233.588 126.988,233.588 126.804 C 233.588 126.620,233.158 126.066,232.634 125.573 C 232.109 125.079,231.679 124.767,231.679 124.878 M197.497 130.713 C 197.089 131.021,196.936 131.279,197.156 131.286 C 197.377 131.292,197.745 131.110,197.975 130.880 C 198.422 130.433,202.317 130.561,203.626 131.066 C 204.378 131.356,204.379 131.351,203.648 130.756 C 202.671 129.960,198.531 129.931,197.497 130.713 M263.300 132.252 C 263.170 133.092,262.949 134.208,262.808 134.733 C 262.564 135.639,262.583 135.633,263.168 134.619 C 263.525 134.000,263.732 132.956,263.661 132.138 L 263.537 130.725 263.300 132.252 M207.384 132.151 C 207.966 132.521,230.819 132.527,231.048 132.156 C 231.145 131.999,225.761 131.870,219.084 131.870 C 212.406 131.870,207.141 131.996,207.384 132.151 M193.567 133.404 C 192.399 134.634,192.790 134.630,194.120 133.397 C 194.686 132.872,194.996 132.446,194.808 132.449 C 194.620 132.453,194.061 132.882,193.567 133.404 M190.104 136.654 C 188.964 137.692,188.108 138.617,188.200 138.709 C 188.292 138.801,189.353 137.944,190.558 136.805 C 193.294 134.217,192.917 134.092,190.104 136.654 M261.934 137.817 C 261.675 138.507,261.533 139.141,261.617 139.225 C 261.889 139.497,262.648 137.766,262.524 137.154 C 262.454 136.806,262.211 137.078,261.934 137.817 M186.069 140.408 C 183.485 142.876,182.876 143.829,185.305 141.604 C 187.362 139.721,188.095 138.913,187.723 138.941 C 187.653 138.946,186.908 139.606,186.069 140.408 M260.753 140.757 C 259.858 142.590,259.830 142.972,260.685 141.704 C 261.143 141.025,261.460 140.301,261.389 140.095 C 261.318 139.888,261.032 140.186,260.753 140.757 M259.258 143.607 C 258.718 144.289,257.958 145.802,258.155 145.802 C 258.247 145.802,258.676 145.200,259.110 144.466 C 259.897 143.131,259.970 142.707,259.258 143.607 M182.316 145.293 C 181.966 145.642,181.993 148.768,182.347 148.987 C 182.505 149.084,182.634 148.235,182.634 147.101 C 182.634 145.966,182.619 145.038,182.602 145.038 C 182.584 145.038,182.455 145.153,182.316 145.293 M256.685 147.233 C 256.343 147.600,255.171 148.830,254.081 149.965 L 252.099 152.029 253.885 150.609 C 254.867 149.828,256.121 148.599,256.672 147.877 C 257.728 146.492,257.736 146.103,256.685 147.233 M183.206 150.863 C 183.206 151.262,185.107 153.188,185.305 152.990 C 185.406 152.889,184.975 152.315,184.347 151.714 C 183.720 151.112,183.206 150.730,183.206 150.863 M188.359 154.670 C 189.520 155.507,191.704 156.515,191.910 156.309 C 192.010 156.208,191.253 155.743,190.226 155.274 C 187.631 154.090,187.494 154.046,188.359 154.670 M244.656 156.330 C 244.062 156.659,243.927 156.861,244.297 156.865 C 244.625 156.868,245.226 156.618,245.633 156.310 C 246.560 155.609,245.932 155.622,244.656 156.330 M194.443 157.455 C 194.851 157.763,195.452 158.009,195.779 158.002 C 196.160 157.993,196.031 157.792,195.420 157.443 C 194.171 156.729,193.494 156.737,194.443 157.455 M242.198 157.455 C 241.605 157.903,241.577 158.015,242.056 158.015 C 242.385 158.015,242.868 157.758,243.130 157.443 C 243.734 156.714,243.167 156.722,242.198 157.455 M198.282 158.602 C 198.912 158.890,199.771 159.126,200.191 159.126 C 200.611 159.127,200.267 158.879,199.427 158.577 C 197.511 157.886,196.756 157.903,198.282 158.602 M238.550 158.612 C 237.699 158.933,237.491 159.120,237.977 159.125 C 238.397 159.130,239.170 158.888,239.695 158.588 C 240.861 157.921,240.346 157.932,238.550 158.612 M202.947 159.409 C 203.765 159.586,203.800 159.777,203.918 164.720 L 204.041 169.848 204.024 164.600 L 204.008 159.351 203.053 159.289 C 202.233 159.235,202.218 159.252,202.947 159.409 M234.121 165.267 C 234.121 168.311,234.180 169.556,234.253 168.034 C 234.325 166.512,234.325 164.022,234.253 162.500 C 234.180 160.978,234.121 162.223,234.121 165.267 M204.224 170.611 C 204.223 170.926,204.475 171.517,204.783 171.924 C 205.496 172.867,205.488 172.247,204.771 170.992 C 204.455 170.439,204.225 170.279,204.224 170.611 M232.439 173.375 C 231.307 175.077,231.235 175.360,232.211 174.273 C 232.758 173.663,233.206 173.019,233.206 172.841 C 233.206 172.343,233.055 172.448,232.439 173.375 M207.634 175.691 C 207.634 176.142,211.159 177.897,211.752 177.741 C 212.332 177.588,212.328 177.565,211.709 177.525 C 211.327 177.501,210.253 177.035,209.324 176.490 C 208.394 175.946,207.634 175.586,207.634 175.691 M228.425 176.863 C 228.011 177.152,227.328 177.476,226.908 177.582 C 226.185 177.764,226.188 177.776,226.962 177.818 C 227.411 177.843,228.184 177.525,228.679 177.112 C 229.715 176.249,229.543 176.080,228.425 176.863 M216.491 178.145 C 217.899 178.218,220.303 178.219,221.834 178.146 C 223.366 178.074,222.214 178.014,219.275 178.013 C 216.336 178.013,215.083 178.072,216.491 178.145 M150.458 211.825 C 149.765 211.990,149.078 212.254,148.931 212.411 C 148.784 212.568,149.351 212.545,150.191 212.360 C 152.163 211.925,248.357 211.917,249.618 212.352 C 250.417 212.628,250.492 212.597,250.076 212.161 C 249.516 211.573,152.880 211.247,150.458 211.825 M347.519 212.019 L 346.374 212.600 347.519 212.320 C 349.070 211.940,352.605 211.966,354.008 212.367 C 354.929 212.630,355.063 212.599,354.696 212.207 C 353.985 211.449,348.905 211.315,347.519 212.019 M143.321 213.189 C 142.352 213.663,142.323 213.714,143.130 213.521 C 143.655 213.395,144.685 213.155,145.420 212.988 C 146.739 212.687,146.742 212.683,145.611 212.657 C 144.981 212.642,143.950 212.882,143.321 213.189 M252.290 213.110 C 252.815 213.386,253.325 213.546,253.424 213.465 C 253.692 213.245,252.566 212.607,251.908 212.607 C 251.593 212.607,251.764 212.832,252.290 213.110 M343.298 213.156 C 342.891 213.464,342.738 213.722,342.958 213.728 C 343.178 213.735,343.522 213.585,343.721 213.396 C 343.921 213.206,344.427 212.969,344.847 212.868 C 345.592 212.688,345.592 212.683,344.825 212.640 C 344.393 212.615,343.706 212.848,343.298 213.156 M356.679 212.872 C 357.099 212.975,357.657 213.234,357.920 213.447 C 358.243 213.709,358.397 213.709,358.397 213.446 C 358.397 212.990,357.454 212.577,356.553 212.640 C 356.083 212.672,356.116 212.733,356.679 212.872 M340.787 214.526 L 339.885 215.312 341.031 214.642 C 342.538 213.760,342.560 213.740,342.091 213.740 C 341.869 213.740,341.282 214.094,340.787 214.526 M359.160 214.011 C 359.475 214.127,360.076 214.500,360.496 214.840 C 361.253 215.453,361.253 215.451,360.532 214.599 C 360.133 214.127,359.531 213.754,359.197 213.771 C 358.680 213.796,358.674 213.833,359.160 214.011 M138.000 214.707 C 137.057 215.420,137.677 215.412,138.931 214.695 C 139.485 214.378,139.645 214.149,139.313 214.148 C 138.998 214.147,138.407 214.399,138.000 214.707 M134.901 215.828 C 133.937 216.557,134.355 216.564,135.739 215.842 C 136.340 215.528,136.564 215.271,136.237 215.270 C 135.910 215.268,135.309 215.519,134.901 215.828 M258.048 217.017 C 259.011 218.049,260.171 219.389,260.625 219.994 C 261.079 220.600,261.450 220.968,261.450 220.812 C 261.450 220.319,258.481 216.778,257.367 215.942 C 256.734 215.467,257.012 215.905,258.048 217.017 M132.072 216.779 C 131.163 217.354,131.783 217.475,132.824 216.926 C 133.350 216.649,133.522 216.424,133.206 216.424 C 132.891 216.424,132.381 216.584,132.072 216.779 M336.260 217.800 C 334.182 219.432,333.924 219.695,334.924 219.162 C 335.755 218.719,338.478 216.441,338.168 216.447 C 338.063 216.450,337.204 217.059,336.260 217.800 M364.548 218.629 C 365.258 219.436,365.903 220.049,365.980 219.991 C 366.206 219.820,364.362 217.630,363.785 217.385 C 363.494 217.261,363.838 217.821,364.548 218.629 M126.908 219.466 C 126.279 219.883,125.935 220.224,126.145 220.224 C 126.355 220.224,127.042 219.883,127.672 219.466 C 128.302 219.049,128.645 218.707,128.435 218.707 C 128.225 218.707,127.538 219.049,126.908 219.466 M332.085 221.000 C 331.363 221.617,330.850 222.198,330.944 222.292 C 331.038 222.386,331.776 221.874,332.584 221.155 C 334.373 219.564,333.927 219.425,332.085 221.000 M261.463 221.426 C 261.456 221.559,261.707 222.160,262.021 222.762 C 262.334 223.363,262.592 223.587,262.593 223.260 C 262.595 222.700,261.489 220.905,261.463 221.426 M329.008 223.565 C 328.198 224.383,328.174 224.467,328.848 224.118 C 329.735 223.658,330.813 222.497,330.295 222.559 C 330.112 222.581,329.532 223.034,329.008 223.565 M367.188 222.953 C 367.181 223.086,367.432 223.687,367.746 224.288 C 368.059 224.890,368.317 225.114,368.318 224.787 C 368.320 224.227,367.214 222.432,367.188 222.953 M119.047 224.461 C 118.543 224.900,116.970 226.143,115.553 227.224 C 114.136 228.306,112.977 229.333,112.977 229.508 C 112.977 229.683,113.214 229.599,113.504 229.321 C 113.795 229.044,115.426 227.727,117.130 226.395 C 119.916 224.218,120.517 223.664,120.097 223.664 C 120.024 223.664,119.551 224.023,119.047 224.461 M262.802 225.000 C 262.950 225.420,263.204 226.279,263.367 226.908 L 263.662 228.053 263.701 226.886 C 263.723 226.244,263.469 225.385,263.137 224.978 C 262.542 224.247,262.537 224.247,262.802 225.000 M325.382 226.403 C 324.332 227.253,323.405 228.132,323.322 228.358 C 323.189 228.720,326.062 226.562,327.412 225.286 C 328.571 224.191,327.146 224.975,325.382 226.403 M368.456 229.962 C 368.455 231.851,368.519 232.672,368.600 231.786 C 368.680 230.900,368.681 229.355,368.602 228.351 C 368.523 227.348,368.457 228.073,368.456 229.962 M320.038 230.764 C 318.569 231.921,317.296 233.070,317.210 233.317 C 317.123 233.563,317.348 233.470,317.708 233.110 C 318.069 232.749,319.384 231.669,320.632 230.709 C 322.554 229.230,323.252 228.567,322.805 228.642 C 322.753 228.651,321.508 229.606,320.038 230.764 M111.763 230.248 C 111.486 230.510,110.400 231.406,109.351 232.239 C 107.526 233.686,106.983 234.147,104.389 236.451 C 102.693 237.957,106.308 235.278,108.767 233.206 C 112.464 230.091,112.789 229.795,112.527 229.783 C 112.385 229.776,112.041 229.986,111.763 230.248 M263.265 233.111 C 263.166 233.688,262.961 234.504,262.809 234.924 C 262.537 235.676,262.542 235.676,263.137 234.946 C 263.469 234.539,263.740 233.723,263.740 233.133 C 263.740 231.766,263.498 231.754,263.265 233.111 M316.031 233.884 C 316.031 234.047,314.914 235.023,313.550 236.054 C 311.300 237.753,310.325 238.663,311.546 237.924 C 313.772 236.576,317.126 233.588,316.412 233.588 C 316.202 233.588,316.031 233.721,316.031 233.884 M367.625 235.911 C 367.349 236.354,367.196 236.789,367.286 236.878 C 367.550 237.143,368.405 235.939,368.260 235.505 C 368.187 235.286,367.901 235.469,367.625 235.911 M101.732 238.376 C 101.111 238.873,100.682 239.358,100.778 239.454 C 100.875 239.551,101.446 239.206,102.048 238.688 C 103.471 237.464,103.204 237.200,101.732 238.376 M99.046 240.696 C 98.360 241.280,98.219 241.513,98.696 241.276 C 99.395 240.929,100.707 239.672,100.333 239.708 C 100.255 239.716,99.676 240.161,99.046 240.696 M363.359 242.419 C 360.398 245.579,360.137 245.915,361.623 244.656 C 363.218 243.307,366.031 240.323,366.031 239.982 C 366.031 239.564,366.060 239.537,363.359 242.419 M95.861 243.168 C 95.158 243.807,94.645 244.390,94.719 244.465 C 94.794 244.539,95.516 244.012,96.325 243.293 C 97.133 242.573,97.646 241.990,97.466 241.996 C 97.285 242.002,96.563 242.530,95.861 243.168 M257.725 243.034 C 257.355 243.402,256.559 244.089,255.956 244.561 C 255.353 245.033,255.011 245.420,255.197 245.419 C 255.382 245.419,256.307 244.732,257.252 243.893 C 258.197 243.054,258.841 242.367,258.683 242.367 C 258.526 242.367,258.095 242.667,257.725 243.034 M304.404 243.317 C 303.783 243.825,303.353 244.313,303.450 244.401 C 303.547 244.489,304.141 244.067,304.771 243.464 C 306.161 242.133,305.955 242.050,304.404 243.317 M93.007 245.536 C 91.951 246.358,91.639 246.378,76.976 246.574 L 62.023 246.773 76.923 246.860 L 91.823 246.947 93.144 245.817 C 94.680 244.504,94.585 244.309,93.007 245.536 M253.267 246.005 C 252.674 246.453,252.645 246.565,253.125 246.565 C 253.454 246.565,253.937 246.307,254.198 245.992 C 254.803 245.264,254.236 245.271,253.267 246.005 M250.573 247.151 C 249.943 247.440,249.685 247.677,250.000 247.679 C 250.315 247.681,251.002 247.437,251.527 247.137 C 252.733 246.448,252.089 246.457,250.573 247.151 M356.392 248.373 C 355.184 249.336,354.268 250.196,354.356 250.284 C 354.577 250.505,358.295 247.630,358.549 247.042 C 358.817 246.420,358.923 246.355,356.392 248.373 M56.489 248.256 C 55.754 248.741,54.810 249.547,54.392 250.046 L 53.631 250.954 54.665 250.041 C 55.234 249.539,56.349 248.728,57.144 248.240 C 57.938 247.752,58.416 247.357,58.206 247.363 C 57.996 247.368,57.223 247.770,56.489 248.256 M247.424 247.973 C 247.791 248.069,248.392 248.069,248.760 247.973 C 249.127 247.877,248.826 247.798,248.092 247.798 C 247.357 247.798,247.056 247.877,247.424 247.973 M199.750 248.384 C 199.351 248.637,227.281 248.623,239.504 248.364 C 242.233 248.306,234.504 248.223,222.328 248.181 C 210.153 248.138,199.992 248.229,199.750 248.384 M196.430 250.173 C 195.874 250.687,195.420 251.217,195.420 251.350 C 195.420 251.483,195.935 251.105,196.565 250.511 C 197.195 249.916,197.710 249.386,197.710 249.333 C 197.710 249.082,197.358 249.312,196.430 250.173 M294.583 251.065 C 293.599 251.844,292.703 252.693,292.594 252.953 C 292.484 253.212,293.235 252.783,294.262 251.999 C 295.289 251.214,296.222 250.358,296.335 250.095 C 296.610 249.458,296.630 249.447,294.583 251.065 M352.481 251.593 L 351.336 252.761 352.576 251.881 C 353.259 251.397,353.817 250.862,353.817 250.692 C 353.817 250.252,353.756 250.293,352.481 251.593 M53.053 251.718 C 52.784 252.043,52.649 252.394,52.754 252.499 C 52.859 252.604,53.165 252.424,53.435 252.099 C 53.705 251.774,53.840 251.422,53.735 251.317 C 53.630 251.212,53.323 251.393,53.053 251.718 M194.156 253.217 C 193.723 254.265,193.520 255.514,193.612 256.550 L 193.760 258.206 193.826 256.452 C 193.863 255.487,194.164 254.154,194.496 253.489 C 194.827 252.825,195.042 252.114,194.973 251.910 C 194.904 251.707,194.536 252.295,194.156 253.217 M349.481 254.016 C 348.670 254.746,348.155 255.343,348.336 255.342 C 348.677 255.340,351.145 253.145,351.145 252.843 C 351.145 252.547,350.992 252.655,349.481 254.016 M52.471 282.634 C 52.471 298.378,52.519 304.874,52.576 297.070 C 52.634 289.266,52.634 276.384,52.576 268.444 C 52.519 260.504,52.471 266.889,52.471 282.634 M288.409 256.120 C 287.387 256.953,286.673 257.634,286.821 257.634 C 287.287 257.634,290.043 255.558,290.243 255.057 C 290.501 254.413,290.519 254.402,288.409 256.120 M346.374 256.555 L 345.229 257.723 346.469 256.843 C 347.152 256.359,347.710 255.824,347.710 255.653 C 347.710 255.214,347.649 255.255,346.374 256.555 M343.321 259.011 L 341.794 260.378 343.416 259.164 C 344.812 258.120,345.316 257.617,344.943 257.639 C 344.890 257.642,344.160 258.260,343.321 259.011 M282.443 260.115 C 282.178 260.434,282.136 260.687,282.349 260.687 C 282.559 260.687,282.945 260.429,283.206 260.115 C 283.471 259.795,283.512 259.542,283.300 259.542 C 283.090 259.542,282.704 259.800,282.443 260.115 M194.656 260.215 C 194.656 260.736,197.426 263.228,198.741 263.889 C 200.507 264.778,269.308 264.815,272.328 263.929 C 273.378 263.621,273.635 263.482,272.901 263.620 C 272.166 263.757,255.514 263.929,235.896 264.002 C 195.764 264.150,198.558 264.341,195.866 261.275 C 195.201 260.517,194.656 260.040,194.656 260.215 M280.153 261.260 C 279.548 261.988,280.115 261.981,281.084 261.247 C 281.678 260.799,281.706 260.687,281.227 260.687 C 280.897 260.687,280.414 260.945,280.153 261.260 M339.504 261.894 C 339.294 262.118,338.349 262.984,337.405 263.819 L 335.687 265.338 337.882 263.685 C 339.089 262.776,340.076 261.902,340.076 261.742 C 340.076 261.368,339.973 261.396,339.504 261.894 M277.268 262.392 C 276.304 263.122,276.721 263.129,278.105 262.407 C 278.707 262.093,278.931 261.836,278.603 261.834 C 278.276 261.833,277.675 262.084,277.268 262.392 M333.524 266.712 C 333.454 266.877,331.937 268.146,330.153 269.533 C 328.368 270.919,326.565 272.459,326.145 272.955 L 325.382 273.855 326.336 273.094 C 326.861 272.676,327.559 272.073,327.888 271.754 C 328.217 271.435,329.720 270.233,331.228 269.083 C 332.736 267.933,333.969 266.862,333.969 266.702 C 333.969 266.323,333.687 266.329,333.524 266.712 M324.046 274.427 C 323.562 274.847,323.337 275.191,323.547 275.191 C 323.756 275.191,324.238 274.847,324.618 274.427 C 324.998 274.008,325.223 273.664,325.118 273.664 C 325.012 273.664,324.530 274.008,324.046 274.427 M321.491 276.555 L 320.420 277.537 321.660 276.674 C 322.343 276.199,322.901 275.757,322.901 275.692 C 322.901 275.390,322.479 275.649,321.491 276.555 M318.364 278.836 C 317.444 279.560,316.833 280.153,317.008 280.153 C 317.510 280.153,320.229 278.176,320.229 277.811 C 320.229 277.363,320.258 277.348,318.364 278.836 M313.505 282.854 C 311.850 284.130,310.440 285.376,310.372 285.622 C 310.292 285.908,310.361 285.930,310.563 285.685 C 310.736 285.474,311.565 284.790,312.405 284.165 C 313.244 283.539,314.275 282.732,314.695 282.369 C 315.115 282.007,315.802 281.451,316.221 281.134 C 316.641 280.818,316.879 280.553,316.749 280.546 C 316.619 280.540,315.159 281.578,313.505 282.854 M308.206 287.256 L 306.679 288.622 308.302 287.409 C 309.698 286.364,310.201 285.861,309.828 285.884 C 309.776 285.887,309.046 286.504,308.206 287.256 M304.962 289.728 L 303.626 290.886 305.053 290.004 C 305.837 289.519,306.481 288.993,306.484 288.836 C 306.491 288.420,306.429 288.456,304.962 289.728 M296.714 296.287 C 295.642 297.174,294.274 298.287,293.674 298.760 C 293.073 299.232,292.720 299.618,292.887 299.618 C 293.168 299.618,296.077 297.396,297.260 296.279 C 297.537 296.016,297.906 295.802,298.078 295.802 C 298.251 295.802,298.490 295.544,298.611 295.229 C 298.905 294.464,298.940 294.444,296.714 296.287 M290.050 301.634 C 287.943 303.455,286.482 304.580,286.227 304.580 C 286.080 304.580,285.858 304.844,285.734 305.167 C 285.473 305.847,290.685 301.955,290.992 301.240 C 291.262 300.614,291.204 300.638,290.050 301.634 M281.870 308.251 C 281.031 308.994,280.687 309.431,281.107 309.222 C 281.907 308.823,283.588 307.349,283.588 307.046 C 283.588 306.754,283.457 306.846,281.870 308.251 M276.718 312.214 C 275.773 312.842,275.163 313.356,275.361 313.357 C 275.734 313.359,278.626 311.455,278.626 311.208 C 278.626 310.966,278.474 311.046,276.718 312.214 M52.682 312.859 C 52.688 313.029,53.208 313.769,53.839 314.504 L 54.985 315.840 54.172 314.407 C 53.369 312.993,52.662 312.259,52.682 312.859 M55.344 315.996 C 55.344 316.334,58.019 318.072,58.212 317.859 C 58.267 317.798,57.645 317.277,56.828 316.702 C 56.012 316.127,55.344 315.809,55.344 315.996 M268.702 316.280 C 268.176 316.557,268.005 316.783,268.321 316.782 C 268.979 316.782,270.105 316.145,269.836 315.924 C 269.737 315.843,269.227 316.003,268.702 316.280 M264.885 317.390 C 263.720 317.831,263.671 317.897,264.504 317.905 C 265.029 317.910,265.791 317.662,266.199 317.354 C 267.076 316.691,266.708 316.701,264.885 317.390 M109.797 318.225 C 137.543 318.279,183.058 318.279,210.943 318.225 C 238.827 318.171,216.126 318.127,160.496 318.127 C 104.866 318.127,82.052 318.171,109.797 318.225 " stroke="none" fill="#cfcfcf" fill-rule="evenodd"></path></g></svg>